<svg xmlns="http://www.w3.org/2000/svg" width="600" height="400" viewBox="0 0 600 400" fill="none">
  <style>
    .primary { fill: #ffffff; }
    .secondary { fill: #f8f9fa; }
    .accent { fill: #0d6efd; }
  </style>
  
  <!-- Background Elements -->
  <circle cx="300" cy="200" r="180" fill="#ffffff" opacity="0.1"/>
  <circle cx="300" cy="200" r="120" fill="#ffffff" opacity="0.2"/>
  
  <!-- ID Card -->
  <rect x="200" y="100" width="200" height="140" rx="10" class="primary" />
  <rect x="200" y="100" width="200" height="30" rx="10" fill="#0d6efd" />
  <rect x="220" y="145" width="70" height="80" rx="5" fill="#f8f9fa" />
  <rect x="310" y="145" width="70" height="15" rx="2" fill="#f8f9fa" />
  <rect x="310" y="170" width="70" height="15" rx="2" fill="#f8f9fa" />
  <rect x="310" y="195" width="70" height="15" rx="2" fill="#f8f9fa" />
  
  <!-- Face Recognition Elements -->
  <circle cx="255" cy="185" r="25" fill="#0d6efd" opacity="0.7" />
  <rect x="240" y="170" width="30" height="30" rx="15" fill="none" stroke="#ffffff" stroke-width="2" />
  
  <!-- Checkmark -->
  <circle cx="400" cy="140" r="25" fill="#28a745" />
  <path d="M390 140 L398 148 L410 132" stroke="#ffffff" stroke-width="4" stroke-linecap="round" stroke-linejoin="round" />
  
  <!-- Lock Icon -->
  <circle cx="200" cy="260" r="20" fill="#0d6efd" />
  <rect x="193" y="250" width="14" height="20" rx="2" fill="#ffffff" />
  <rect x="196" y="258" width="8" height="8" rx="4" fill="#0d6efd" />
  
  <!-- Document Icon -->
  <rect x="380" y="240" width="30" height="40" rx="2" class="primary" />
  <rect x="385" y="250" width="20" height="2" rx="1" fill="#0d6efd" />
  <rect x="385" y="260" width="20" height="2" rx="1" fill="#0d6efd" />
  <rect x="385" y="270" width="15" height="2" rx="1" fill="#0d6efd" />
</svg> 